<svg viewBox="0 0 1024 1024" width="128" height="128"
     version="1.1" xmlns="http://www.w3.org/2000/svg">
    <path d="M414.175191 414.175191v-36.119929c-12.641975-1.805996-25.283951-2.407995-38.527925-3.009995-156.519694 0-284.745444 125.215755-284.745444 279.327455 0 94.513815 48.159906 178.191652 121.603763 228.759553-48.761905-51.1699-76.453851-119.195767-76.453851-190.231628 0.601999-151.703704 124.613757-275.113463 278.123457-278.725456"
          fill="#20F4F2"/>
    <path d="M420.797178 821.126396c69.831864 0 127.021752-54.781893 129.429747-122.80776V89.697825h113.175779c-2.407995-12.641975-3.611993-25.885949-3.611993-38.527925H505.679012v608.620811c-2.407995 68.025867-59.597884 122.80776-129.429747 122.80776-21.069959 0-41.537919-4.815991-60.199882-14.447971 24.079953 33.109935 63.209877 52.975897 104.747795 52.975896m454.509112-524.942974v-33.711935c-41.537919 0-82.473839-12.039976-117.38977-34.313933 31.303939 34.915932 72.239859 58.393886 117.38977 68.025868"
          fill="#20F4F2"/>
    <path d="M758.518519 228.157554c-33.711934-37.925926-52.975897-87.28983-52.975897-138.459729h-41.537919c10.835979 57.189888 45.149912 107.155791 94.513816 138.459729M375.647266 527.35097c-71.63786 0-130.031746 57.189888-130.031746 127.623751 0 48.761905 28.293945 91.503821 69.831864 113.175779-16.253968-21.671958-24.681952-47.557907-24.681952-74.647854C290.765432 623.068783 349.159318 565.878895 420.797178 565.878895c13.243974 0 25.885949 1.805996 38.527925 6.019988V416.583186c-12.641975-1.805996-25.283951-2.407995-38.527925-3.009994h-6.621987v119.195767c-12.641975-3.611993-25.283951-5.417989-38.527925-5.417989"
          fill="#FD1A52"/>
    <path d="M875.30629 296.183422v117.991769c-77.05585 0-152.305703-23.477954-214.91358-68.025867v308.223398c0 154.111699-127.623751 279.327454-284.745444 279.327454-58.393886 0-114.981775-17.457966-163.141681-50.567901 54.179894 57.189888 129.429747 89.095826 208.291593 89.095826 157.121693 0 284.745444-125.215755 284.745444-279.327454V384.677249c63.209877 44.547913 137.857731 68.025867 214.91358 68.025867V300.999412c-15.049971 0-30.099941-1.805996-45.149912-4.81599"
          fill="#FD1A52"/>
    <path d="M660.39271 654.974721V346.149324c63.209877 44.547913 137.857731 68.025867 214.91358 68.025867V296.183422c-45.149912-9.631981-86.085832-33.109935-117.38977-68.025868-49.363904-31.303939-83.075838-81.269841-94.513816-138.459729H550.828924V698.318636c-2.407995 68.025867-59.597884 122.80776-129.429747 122.80776-41.537919 0-80.667842-19.865961-105.349794-52.975896-42.741917-21.671958-69.229865-65.015873-69.831864-113.175779 0-70.433862 58.393886-127.623751 130.031746-127.623751 13.243974 0 25.885949 1.805996 38.527925 6.019988V414.175191c-153.5097 3.611993-278.123457 127.623751-278.123457 279.327455 0 71.035861 27.691946 139.061728 76.453851 190.231628 48.159906 33.109935 104.747795 50.567901 163.141681 50.567901 156.519694 0 284.143445-125.215755 284.143445-279.327454"
          fill="#231916"/>
</svg>