<svg width="128" height="128" viewBox="0 0 1024 1024"
     version="1.1" xmlns="http://www.w3.org/2000/svg">
    <path d="M950.857143 475.428571v73.142858q0 114.857143-56.285714 206.857142t-156.571429 143.714286T512 950.857143t-226-51.714286-156.571429-143.714286T73.142857 548.571429V475.428571q0-14.857143 10.857143-25.714285t25.714286-10.857143h219.428571q14.857143 0 25.714286 10.857143t10.857143 25.714285v73.142858q0 29.714286 13.428571 51.428571t30.571429 32.571429 40.571428 17.142857 36.571429 7.428571 25.142857 1.142857 25.142857-1.142857 36.571429-7.428571 40.571428-17.142857 30.571429-32.571429 13.428571-51.428571V475.428571q0-14.857143 10.857143-25.714285t25.714286-10.857143h219.428571q14.857143 0 25.714286 10.857143t10.857143 25.714285zM365.714286 109.714286v219.428571q0 14.857143-10.857143 25.714286t-25.714286 10.857143H109.714286q-14.857143 0-25.714286-10.857143t-10.857143-25.714286V109.714286q0-14.857143 10.857143-25.714286t25.714286-10.857143h219.428571q14.857143 0 25.714286 10.857143t10.857143 25.714286z m585.142857 0v219.428571q0 14.857143-10.857143 25.714286t-25.714286 10.857143h-219.428571q-14.857143 0-25.714286-10.857143t-10.857143-25.714286V109.714286q0-14.857143 10.857143-25.714286t25.714286-10.857143h219.428571q14.857143 0 25.714286 10.857143t10.857143 25.714286z"/>
</svg>