<svg width="128" height="128" viewBox="0 0 1024 1024"
     version="1.1" xmlns="http://www.w3.org/2000/svg">
    <path d="M946.74933272 585.43013589H374.19466687a71.56933323 71.56933323 0 0 0-71.56933324 71.56933324v213.13347436a71.56933323 71.56933323 0 0 0 71.56933324 71.56933323h572.55466585a71.56933323 71.56933323 0 0 0 71.56933324-71.56933323V656.99946913a71.56933323 71.56933323 0 0 0-71.56933324-71.56933324z m0 248.84657166a35.78466661 35.78466661 0 0 1-35.78466661 35.7846666H409.97933347a35.78466661 35.78466661 0 0 1-35.7846666-35.7846666V692.71256641a35.78466661 35.78466661 0 0 1 35.7846666-35.78466662h500.98533264a35.78466661 35.78466661 0 0 1 35.78466661 35.78466662v141.56414114z"/>
    <path d="M767.18187563 726.27858369h-70.13794655a36.50035994 36.50035994 0 1 0 0 73.0007199h70.13794655a36.50035994 36.50035994 0 1 0 0-73.0007199z m-424.97870072-453.39172602a255.14467299 255.14467299 0 0 1 214.7079997-117.87469183c115.8707505 0 212.84719704 77.9390039 244.12299566 183.79004774 6.36967065 21.47079998 10.87853865 47.52203726 11.30795465 70.92520922 5.152992 0.35784666 10.37755332 3.435328 15.31583731 4.36572934a149.00735178 149.00735178 0 0 1 108.92852517 83.73611989 36.21408261 36.21408261 0 0 0 64.34083058-32.4924773c-0.07156934-0.14313867 0.07156934 0.14313867 0 0-0.85883199-2.07551066-2.29021866-4.00788266-3.50689733-5.86868532a219.57471435 219.57471435 0 0 0-117.94626117-105.85104385c-27.19634663-153.87406645-161.03099977-271.31934228-322.56298487-271.31934228-128.32381449 0-238.46901833 74.7183839-292.43229558 182.28709173C126.70791254 271.02605501 16.3480007 384.17717084 16.3480007 523.45109332c0 105.06378118 69.27911457 194.59701706 162.24767845 235.24839833a67.99086657 67.99086657 0 0 0 7.37164131 3.29218934c1.00197066 0.42941601-1.00197066-0.42941601 0 0 2.64806533 0.644124 6.36967065 1.57452533 9.232444 1.57452531a34.49641861 34.49641861 0 1 0 12.02364798-66.98889589v-0.07156934A187.15380641 187.15380641 0 0 1 88.99087394 523.52266264c0-89.60480521 63.33885992-164.60946642 147.57596512-182.93121573 12.88247998-2.791204 26.19437596-4.50886799 39.86411861-4.508868 12.38149464 0 24.40514263 1.35981734 36.07094395 3.65003599 6.94222532-23.83258797 16.60408531-46.44849727 29.70127329-66.84575723z"/>
</svg>